<?xml version="1.0" standalone="no"?>
<svg xmlns="http://www.w3.org/2000/svg" xmlns:xlink="http://www.w3.org/1999/xlink" width="780pt" height="399pt" viewBox="0.00 0.00 779.59 399.2">
<g id="graph0" class="graph" transform="translate(4,395.20001220703125) scale(1)" data-name="Overview">

<polygon fill="white" stroke="none" points="-4,4 -4,-395.2 775.59,-395.2 775.59,4 -4,4"/>
<!-- fabric/core -->
<g id="node1" class="node" pointer-events="visible" data-name="@fabric/core" data-comment="fabric/core">

<ellipse fill="none" stroke="black" cx="448.87" cy="-373.2" rx="61.99" ry="18"/>
<text text-anchor="middle" x="448.87" y="-369" font-family="Times,serif" font-size="14.00">@fabric/core</text>
</g>
<!-- @fabric/h -->
<g id="node2" class="node" pointer-events="visible" data-name="@fabric/http" data-comment="@fabric/h">

<ellipse fill="none" stroke="black" cx="385.87" cy="-284.4" rx="60.3" ry="18"/>
<text text-anchor="middle" x="385.87" y="-280.2" font-family="Times,serif" font-size="14.00">@fabric/http</text>
</g>
<!-- @fabric/w -->

<!-- @fabric/wallet --><g id="edge1" class="edge" data-name="@fabric/core-&gt;@fabric/http" data-comment="@fabric/wallet">

<path fill="none" stroke="black" d="M430.53,-355.64C424.92,-350.08 418.96,-343.65 414.15,-337.2 408.53,-329.66 403.3,-320.87 398.91,-312.69"/>
<polygon fill="black" stroke="black" points="402.03,-311.1 394.35,-303.8 395.8,-314.3 402.03,-311.1"/>
<text text-anchor="middle" x="443.23" y="-324.6" font-family="Times,serif" font-size="14.00">Core APIs</text>
</g>

<!-- @fabric/wallet --><!-- @fabric/http&#45;&gt;@fabric/wallet -->
<g id="edge9" class="edge" data-name="@fabric/http-&gt;@fabric/wallet">

<path fill="none" stroke="black" d="M342.81,-271.38C326.72,-265.79 308.77,-258.18 293.94,-248.4 283.02,-241.2 272.67,-231.24 264.24,-221.97"/>
<polygon fill="black" stroke="black" points="266.99,-219.8 257.79,-214.56 261.71,-224.4 266.99,-219.8"/>
<text text-anchor="middle" x="336.83" y="-235.8" font-family="Times,serif" font-size="14.00">HTTP Services</text>
</g><g id="edge6" class="edge" data-name="@fabric/core-&gt;@verse/core" data-comment="@fabric/http-&gt;@fabric/wallet">

<path fill="none" stroke="black" d="M477.3,-356.79C498.92,-344.14 528.48,-324.71 549.87,-302.4 582.16,-268.72 592.92,-258.42 605.87,-213.6 610.31,-198.23 612.54,-192.15 605.87,-177.6 596.67,-157.52 578.52,-141.03 561.74,-129.13"/>
<polygon fill="black" stroke="black" points="564.13,-126.52 553.87,-123.84 560.22,-132.33 564.13,-126.52"/>
<text text-anchor="middle" x="629.23" y="-235.8" font-family="Times,serif" font-size="14.00">Core APIs</text>
</g><g id="edge4" class="edge" data-name="@fabric/core-&gt;@fabric/wallet" data-comment="@fabric/http-&gt;@fabric/wallet">

<path fill="none" stroke="black" d="M390.46,-366.69C347.11,-359.35 290.18,-342.25 258.15,-302.4 240.84,-280.87 238.85,-248.56 240.2,-225.31"/>
<polygon fill="black" stroke="black" points="243.67,-225.85 241.02,-215.59 236.69,-225.26 243.67,-225.85"/>
<text text-anchor="middle" x="288.23" y="-280.2" font-family="Times,serif" font-size="14.00">Core APIs</text>
</g>
<g id="node3" class="node" pointer-events="visible" data-name="@fabric/wallet" data-comment="@fabric/http-&gt;@fabric/wallet">

<ellipse fill="none" stroke="black" cx="243.87" cy="-195.6" rx="68.95" ry="18"/>
<text text-anchor="middle" x="243.87" y="-191.4" font-family="Times,serif" font-size="14.00">@fabric/wallet</text>
</g>
<!-- @ -->
<!-- @verse/core -->
<g id="node7" class="node" pointer-events="visible" data-name="@verse/core">

<ellipse fill="none" stroke="black" cx="524.87" cy="-106.8" rx="59.71" ry="18"/>
<text text-anchor="middle" x="524.87" y="-102.6" font-family="Times,serif" font-size="14.00">@verse/core</text>
</g>
<g id="edge2" class="edge" data-name="@fabric/core-&gt;@fabric/doorman" data-comment="@verse/core">

<path fill="none" stroke="black" d="M463.33,-355.48C467.2,-350.02 470.86,-343.67 472.87,-337.2 486.76,-292.37 496.67,-272.05 472.87,-231.6 469.7,-226.21 465.36,-221.59 460.44,-217.64"/>
<polygon fill="black" stroke="black" points="462.54,-214.84 452.31,-212.1 458.6,-220.63 462.54,-214.84"/>
<text text-anchor="middle" x="516.23" y="-280.2" font-family="Times,serif" font-size="14.00">Core APIs</text>
</g>
<g id="edge10" class="edge" data-name="@fabric/http-&gt;@verse/core" data-comment="@verse/core">

<path fill="none" stroke="black" d="M431.61,-272.36C447.17,-266.99 463.9,-259.27 476.87,-248.4 510,-220.64 520.32,-168.97 523.5,-136.59"/>
<polygon fill="black" stroke="black" points="526.98,-136.97 524.28,-126.73 520.01,-136.42 526.98,-136.97"/>
<text text-anchor="middle" x="558.83" y="-191.4" font-family="Times,serif" font-size="14.00">HTTP Services</text>
</g>

<!-- @verse/core&#45;&gt; --><!-- @rpg/core -->
<g id="node6" class="node" pointer-events="visible" data-name="@rpg/core">

<ellipse fill="none" stroke="black" cx="618.87" cy="-18" rx="52.2" ry="18"/>
<text text-anchor="middle" x="618.87" y="-13.8" font-family="Times,serif" font-size="14.00">@rpg/core</text>
</g><g id="node4" class="node" pointer-events="visible" data-name="@fabric/doorman" data-comment="@rpg/core">

<ellipse fill="none" stroke="black" cx="409.87" cy="-195.6" rx="79.41" ry="18"/>
<text text-anchor="middle" x="409.87" y="-191.4" font-family="Times,serif" font-size="14.00">@fabric/doorman</text>
</g><g id="edge5" class="edge" data-name="@fabric/core-&gt;@rpg/core" data-comment="@rpg/core">

<path fill="none" stroke="black" d="M505.18,-365.23C582.71,-354.02 712.87,-328.76 712.87,-285.4 712.87,-285.4 712.87,-285.4 712.87,-105.8 712.87,-75.31 685.84,-52.56 660.77,-38.01"/>
<polygon fill="black" stroke="black" points="662.74,-35.1 652.28,-33.38 659.38,-41.25 662.74,-35.1"/>
<text text-anchor="middle" x="742.23" y="-191.4" font-family="Times,serif" font-size="14.00">Core APIs</text>
</g><g id="edge3" class="edge" data-name="@fabric/core-&gt;@fabric/payme" data-comment="@rpg/core">

<path fill="none" stroke="black" d="M394.58,-364.28C292.44,-348.13 78.24,-307.79 37.15,-248.4 13.28,-213.9 34.94,-164.53 52.86,-134.41"/>
<polygon fill="black" stroke="black" points="55.62,-136.6 57.93,-126.26 49.67,-132.91 55.62,-136.6"/>
<text text-anchor="middle" x="67.23" y="-235.8" font-family="Times,serif" font-size="14.00">Core APIs</text>
</g>
<!-- @verse/core&#45;&gt;@ -->
<g id="edge7" class="edge" data-name="@fabric/http-&gt;@fabric/doorman" data-comment="@verse/core-&gt;@">

<path fill="none" stroke="black" d="M383.88,-266.22C383.26,-255.95 383.48,-242.77 386.94,-231.6 387.79,-228.87 388.92,-226.15 390.22,-223.5"/>
<polygon fill="black" stroke="black" points="393.11,-225.49 395.13,-215.09 387.06,-221.97 393.11,-225.49"/>
<text text-anchor="middle" x="429.83" y="-235.8" font-family="Times,serif" font-size="14.00">HTTP Services</text>
</g><g id="node5" class="node" pointer-events="visible" data-name="@fabric/payme" data-comment="@verse/core-&gt;@">

<ellipse fill="none" stroke="black" cx="70.87" cy="-106.8" rx="70.74" ry="18"/>
<text text-anchor="middle" x="70.87" y="-102.6" font-family="Times,serif" font-size="14.00">@fabric/payme</text>
</g>
<!-- @verse/core&#45;&gt;@rpg/core -->
<!-- @verse/core&#45;&gt;@rpg/core -->
<!-- @verse/core&#45;&gt;@rpg/core -->
<!-- @verse/core&#45;&gt;@rpg/core -->
<!-- @verse/core&#45;&gt;@rpg/core -->
<!-- @verse/core&#45;&gt;@rpg/core -->
<!-- @verse/core&#45;&gt;@rpg/core -->
<g id="edge14" class="edge" data-name="@verse/core-&gt;@rpg/core">

<path fill="none" stroke="black" d="M542.55,-89.47C556.73,-76.38 576.84,-57.81 592.85,-43.02"/>
<polygon fill="black" stroke="black" points="595.18,-45.64 600.16,-36.28 590.43,-40.49 595.18,-45.64"/>
<text text-anchor="middle" x="603.99" y="-58.2" font-family="Times,serif" font-size="14.00">RPG 2.0</text>
</g>
<g id="edge8" class="edge" data-name="@fabric/http-&gt;@fabric/payme" data-comment="@verse/core-&gt;@rpg/core">

<path fill="none" stroke="black" d="M342.21,-271.52C335.42,-269.76 328.46,-267.99 321.87,-266.4 214.9,-240.53 152.57,-296.29 79.94,-213.6 61.62,-192.75 61.71,-159.83 64.9,-136.25"/>
<polygon fill="black" stroke="black" points="68.3,-137.12 66.46,-126.69 61.39,-136 68.3,-137.12"/>
<text text-anchor="middle" x="123.83" y="-191.4" font-family="Times,serif" font-size="14.00">HTTP Services</text>
</g>
<g id="edge12" class="edge" data-name="@fabric/wallet-&gt;@fabric/payme" data-comment="@verse/core-&gt;@rpg/core">

<path fill="none" stroke="black" d="M204.67,-180.4C189.46,-174.5 172.05,-167.24 156.73,-159.6 139.22,-150.87 120.53,-139.82 105.08,-130.18"/>
<polygon fill="black" stroke="black" points="107.04,-127.27 96.72,-124.89 103.3,-133.19 107.04,-127.27"/>
<text text-anchor="middle" x="209.94" y="-147" font-family="Times,serif" font-size="14.00">Bitcoin Integration</text>
</g><g id="edge13" class="edge" data-name="@fabric/wallet-&gt;@verse/core" data-comment="@verse/core-&gt;@rpg/core">

<path fill="none" stroke="black" d="M263.11,-177.98C277.69,-166.29 298.73,-151.28 319.73,-142.8 362.81,-125.39 414.38,-116.64 455.03,-112.24"/>
<polygon fill="black" stroke="black" points="455.36,-115.73 464.96,-111.24 454.66,-108.76 455.36,-115.73"/>
<text text-anchor="middle" x="371.94" y="-147" font-family="Times,serif" font-size="14.00">Bitcoin Integration</text>
</g>



<!-- @fabric/doorman&#45;&gt;@fabric/wallet -->
<!-- @fabric/doorman&#45;&gt;@verse/core -->
<!-- @fabric/doorman&#45;&gt;@verse/core -->
<g id="edge11" class="edge" data-name="@fabric/doorman-&gt;@verse/core">

<path fill="none" stroke="black" d="M418.36,-177.36C424.53,-166.29 433.78,-152.26 445.17,-142.8 453.8,-135.63 464.13,-129.67 474.44,-124.83"/>
<polygon fill="black" stroke="black" points="475.54,-128.17 483.31,-120.96 472.74,-121.76 475.54,-128.17"/>
<text text-anchor="middle" x="477.72" y="-147" font-family="Times,serif" font-size="14.00">AI Services</text>
</g>




</g>
</svg>